<svg xmlns="http://www.w3.org/2000/svg" width="48" height="47" viewBox="0 0 48 47" fill="none">
                                <path d="M33.524 21.3244H32.0461C31.6697 21.3244 31.3576 21.0123 31.3576 20.6359C31.3576 20.2595 31.6697 19.9474 32.0461 19.9474H33.524C33.9004 19.9474 34.2125 19.6353 34.2125 19.2589V16.3123C34.2125 15.9359 33.9004 15.6238 33.524 15.6238H16.3213C15.9449 15.6238 15.6328 15.9359 15.6328 16.3123V19.2589C15.6328 19.6353 15.9449 19.9474 16.3213 19.9474H23.4998C23.8762 19.9474 24.1883 20.2595 24.1883 20.6359C24.1883 21.0123 23.8762 21.3244 23.4998 21.3244H16.3213C15.183 21.3244 14.2559 20.3972 14.2559 19.2589V16.3123C14.2559 15.174 15.183 14.2468 16.3213 14.2468H33.524C34.6623 14.2468 35.5895 15.174 35.5895 16.3123V19.2589C35.5895 20.3972 34.6623 21.3244 33.524 21.3244Z" fill="#30373E"></path>
                                <path d="M40.602 12.4937C40.2256 12.4937 39.9135 12.1815 39.9135 11.8052V4.23193H35.5898V8.00479C35.5898 8.38115 35.2777 8.69326 34.9014 8.69326C34.525 8.69326 34.2129 8.38115 34.2129 8.00479V3.54346C34.2129 3.16709 34.525 2.85498 34.9014 2.85498H40.602C40.9783 2.85498 41.2904 3.16709 41.2904 3.54346V11.8052C41.2904 12.1815 40.9783 12.4937 40.602 12.4937Z" fill="#30373E"></path>
                                <path d="M40.6019 44.1359H6.39844C6.02207 44.1359 5.70996 43.8238 5.70996 43.4474V15.2566C5.70996 14.8802 6.02207 14.5681 6.39844 14.5681C6.7748 14.5681 7.08691 14.8802 7.08691 15.2566V42.7681H39.9135V32.1197C39.9135 31.7433 40.2256 31.4312 40.6019 31.4312C40.9783 31.4312 41.2904 31.7433 41.2904 32.1197V43.4566C41.2904 43.833 40.9783 44.1359 40.6019 44.1359Z" fill="#30373E"></path>
                                <path d="M40.6016 29.8064C40.2252 29.8064 39.9131 29.4943 39.9131 29.1179V15.2566C39.9131 14.8802 40.2252 14.5681 40.6016 14.5681C40.9779 14.5681 41.29 14.8802 41.29 15.2566V29.1179C41.29 29.4943 40.9779 29.8064 40.6016 29.8064Z" fill="#30373E"></path>
                                <path d="M44.8888 18.5154C44.5124 18.5154 44.1085 18.4053 43.7138 18.1574L43.7046 18.1482L23.5001 4.68164L3.30479 18.1482C2.83663 18.4604 2.26749 18.5797 1.70753 18.4604C1.14757 18.3502 0.670224 18.0289 0.358114 17.5516C-0.293644 16.5785 -0.0274328 15.2566 0.945614 14.6049L10.3273 8.35352C10.6394 8.14238 11.0708 8.225 11.2819 8.54629C11.4931 8.8584 11.4105 9.28984 11.0892 9.50098L1.70753 15.7615C1.36788 15.991 1.27608 16.4592 1.4964 16.7988C1.60655 16.9641 1.77179 17.0742 1.97374 17.1201C2.16651 17.1568 2.36847 17.1201 2.5337 17.01L23.1146 3.27715C23.3441 3.12109 23.647 3.12109 23.8765 3.27715L44.4482 16.9916C45.0724 17.3771 45.4487 16.8539 45.4946 16.7896C45.7241 16.45 45.6323 15.9818 45.2835 15.7523L23.9132 1.50547C23.6653 1.34023 23.3349 1.34023 23.087 1.50547L13.586 7.83945C13.2739 8.05059 12.8425 7.96797 12.6314 7.64668C12.4202 7.33457 12.5028 6.90313 12.8241 6.69199L22.3251 0.358008C23.0411 -0.119336 23.9683 -0.119336 24.6843 0.358008L46.0638 14.6141C47.0368 15.2658 47.303 16.5877 46.6513 17.5607C46.2749 18.1115 45.6232 18.5154 44.8888 18.5154Z" fill="#30373E"></path>
                                <path d="M42.0248 4.22266H33.4785C33.1021 4.22266 32.79 3.91055 32.79 3.53418V0.688477C32.79 0.312109 33.1021 0 33.4785 0H42.0248C42.4012 0 42.7133 0.312109 42.7133 0.688477V3.53418C42.7133 3.91973 42.4103 4.22266 42.0248 4.22266ZM34.167 2.8457H41.3363V1.37695H34.167V2.8457Z" fill="#30373E"></path>
                                <path d="M43.4477 46.9999H26.4285C26.0521 46.9999 25.74 46.6878 25.74 46.3114C25.74 45.9351 26.0521 45.6229 26.4285 45.6229H42.7684V44.145H4.24121V45.6229H23.4268C23.8031 45.6229 24.1152 45.9351 24.1152 46.3114C24.1152 46.6878 23.8031 46.9999 23.4268 46.9999H3.55273C3.17637 46.9999 2.86426 46.6878 2.86426 46.3114V43.4565C2.86426 43.0802 3.17637 42.7681 3.55273 42.7681H43.4568C43.8332 42.7681 44.1453 43.0802 44.1453 43.4565V46.3114C44.1361 46.6878 43.8332 46.9999 43.4477 46.9999Z" fill="#30373E"></path>
                                <path d="M24.9232 32.7256C24.5469 32.7256 24.2348 32.4135 24.2348 32.0372V28.7784C24.2348 28.4754 24.042 28.2092 23.7574 28.1266H23.7482L12.852 24.4547C11.9891 24.1793 11.4199 23.3899 11.4199 22.4903V19.1672C11.4199 18.029 12.3471 17.1018 13.4854 17.1018H14.9633C15.3396 17.1018 15.6518 17.4139 15.6518 17.7903C15.6518 18.1667 15.3396 18.4788 14.9633 18.4788H13.4854C13.109 18.4788 12.7969 18.7909 12.7969 19.1672V22.4903C12.7969 22.7932 12.9896 23.0594 13.2742 23.142H13.2834L24.1797 26.8047C25.0426 27.0801 25.6117 27.8696 25.6117 28.7692V32.0372C25.6117 32.4227 25.3088 32.7256 24.9232 32.7256Z" fill="#30373E"></path>
                                <path d="M24.941 44.1359H24.9135C23.3621 44.1359 22.1045 42.8783 22.1045 41.327V32.0371C22.1045 31.6607 22.4166 31.3486 22.793 31.3486H27.0707C27.4471 31.3486 27.7592 31.6607 27.7592 32.0371V41.327C27.75 42.8783 26.4924 44.1359 24.941 44.1359ZM23.4723 32.7256V41.327C23.4723 42.1164 24.1148 42.759 24.9043 42.759H24.9318C25.7213 42.759 26.3639 42.1164 26.3639 41.327V32.7256H23.4723Z" fill="#30373E"></path>
                                <path d="M30.623 32.7256C29.4572 32.7256 28.5117 31.7801 28.5117 30.6143C28.5117 29.4484 29.4572 28.5029 30.623 28.5029C31.7889 28.5029 32.7344 29.4484 32.7344 30.6143C32.7252 31.7801 31.7797 32.7256 30.623 32.7256ZM30.623 29.8891C30.2191 29.8891 29.8887 30.2195 29.8887 30.6234C29.8887 31.0273 30.2191 31.3578 30.623 31.3578C31.027 31.3578 31.3574 31.0273 31.3574 30.6234C31.3574 30.2195 31.027 29.8891 30.623 29.8891Z" fill="#30373E"></path>
                                <path d="M30.623 27.0341C29.4572 27.0341 28.5117 26.0886 28.5117 24.9228V22.0679C28.5117 21.664 28.1812 21.3335 27.7773 21.3335C27.3734 21.3335 27.043 21.664 27.043 22.0679C27.043 23.2337 26.0975 24.1792 24.9316 24.1792C23.7658 24.1792 22.8203 23.2337 22.8203 22.0679V19.2039C22.8203 18.8 22.4898 18.4695 22.0859 18.4695C20.9201 18.4695 19.9746 17.524 19.9746 16.3582V14.9353C19.9746 14.7517 20.048 14.5773 20.1766 14.4488C20.3051 14.3203 20.4795 14.2468 20.6631 14.2468L32.0643 14.256C32.4406 14.256 32.7527 14.5681 32.7527 14.9445V24.9228C32.7344 26.0886 31.7889 27.0341 30.623 27.0341ZM27.7773 19.9566C28.9432 19.9566 29.8887 20.9021 29.8887 22.0679V24.9228C29.8887 25.3267 30.2191 25.6572 30.623 25.6572C31.027 25.6572 31.3574 25.3267 31.3574 24.9228V15.633L21.3332 15.6238V16.3582C21.3332 16.7621 21.6637 17.0925 22.0676 17.0925C23.2334 17.0925 24.1789 18.038 24.1789 19.2039V22.0679C24.1789 22.4718 24.5094 22.8023 24.9133 22.8023C25.3172 22.8023 25.6477 22.4718 25.6477 22.0679C25.6568 20.9021 26.6115 19.9566 27.7773 19.9566Z" fill="#30373E"></path>
                                <path d="M17.7992 44.136H9.25293C8.87656 44.136 8.56445 43.8239 8.56445 43.4476V29.2007C8.56445 28.8243 8.87656 28.5122 9.25293 28.5122H17.7992C18.1756 28.5122 18.4877 28.8243 18.4877 29.2007V43.4567C18.4877 43.8331 18.1756 44.136 17.7992 44.136ZM9.94141 42.7591H17.1107V29.8892H9.94141V42.7591Z" fill="#30373E"></path>
                            </svg>