<svg xmlns="http://www.w3.org/2000/svg" width="50" height="51" viewBox="0 0 50 51" fill="none">
                                <path d="M46.4664 37.0884L49.1625 30.3478L47.7117 29.7673L44.7836 37.0884H44.5312V27.7134H42.9687V15.2134H39.8437V12.0884H38.2812V15.2134H36.7187V10.5259H35.1562V15.2134H33.5937V12.0884H32.0312V15.2134H28.9062V24.5884H25.7812V28.5954C23.9398 26.3345 21.4266 24.6876 18.5742 23.9329L18.2195 22.8696C19.3586 22.5548 20.2945 21.7493 20.7625 20.6821H21.0937C22.8172 20.6821 24.2187 19.2806 24.2187 17.5571V13.6509C25.0805 13.6509 25.7812 12.9501 25.7812 12.0884V10.5259C25.7812 9.66416 25.0805 8.96338 24.2187 8.96338H24.0828C23.3352 4.46338 19.4867 1.15088 14.8437 1.15088C10.2008 1.15088 6.35234 4.46338 5.60469 8.96338H5.46875C4.60703 8.96338 3.90625 9.66416 3.90625 10.5259V12.0884C3.90625 12.9501 4.60703 13.6509 5.46875 13.6509V17.5571C5.46875 19.2806 6.87031 20.6821 8.59375 20.6821H8.925C9.39375 21.7493 10.3289 22.5556 11.468 22.8696L11.1133 23.9329C5.00781 25.5431 0.78125 31.0009 0.78125 37.3556V37.8696C0.78125 41.2009 2.69062 44.0892 5.46875 45.5149V49.5884H28.9062V43.3384H31.3289C31.6922 45.1188 33.2695 46.4634 35.1562 46.4634C37.043 46.4634 38.6203 45.1188 38.9836 43.3384H42.9047C46.0414 43.3384 48.693 41.0923 49.2086 37.9985L49.3602 37.0884H46.4664ZM36.7187 37.0884V29.2759H42.9687V37.0884H36.7187ZM30.4687 16.7759H41.4062V27.7134H36.7187V24.5884H30.4687V16.7759ZM35.1562 26.1509V37.0884H27.3437V26.1509H35.1562ZM25.7812 31.3665V37.0884H25.5289L22.6 29.7665L21.1492 30.347L23.8461 37.0884H20.9531L21.1047 37.9985C21.3117 39.2407 21.8672 40.3431 22.6562 41.2212V48.0259H18.75V46.4634C20.0422 46.4634 21.0937 45.4118 21.0937 44.1196C21.0937 42.8274 20.0422 41.7759 18.75 41.7759V25.6251C21.7289 26.572 24.2484 28.6157 25.7812 31.3665ZM16.6242 23.0259L17.1062 24.4728L14.8437 27.8673L12.5805 24.4728L13.0633 23.0259H16.6242ZM17.1875 30.9548L15.8109 29.2337L17.1875 27.1688V30.9548ZM12.5 30.9548V27.1688L13.8766 29.2337L12.5 30.9548ZM12.5 33.4556L14.8437 30.5259L17.1875 33.4556V40.3509C16.9422 40.2642 16.6805 40.2134 16.4062 40.2134H15.4914C14.8656 40.2134 14.2766 40.4571 13.8336 40.9001L13.032 41.7017L12.5 41.5829V33.4556ZM14.0625 42.8806L14.9383 42.0048C15.0859 41.8571 15.2828 41.7759 15.4914 41.7759H16.4062C16.8367 41.7759 17.1875 42.1267 17.1875 42.5571V43.3384H18.75C19.1805 43.3384 19.5312 43.6892 19.5312 44.1196C19.5312 44.5501 19.1805 44.9009 18.75 44.9009H14.0625V42.8806ZM17.1875 46.4634V48.0259H12.5V46.4634H17.1875ZM21.0937 19.1196V15.9946C21.9555 15.9946 22.6562 16.6954 22.6562 17.5571C22.6562 18.4188 21.9555 19.1196 21.0937 19.1196ZM22.6562 14.8665C22.1945 14.5978 21.6656 14.4321 21.0937 14.4321V13.6509H22.6562V14.8665ZM22.4969 8.96338H17.1875V3.07119C19.8711 3.90322 21.9297 6.129 22.4969 8.96338ZM15.625 2.75244V8.96338H14.0625V2.75244C14.3195 2.72744 14.5797 2.71338 14.8437 2.71338C15.1078 2.71338 15.368 2.72744 15.625 2.75244ZM12.5 3.07119V8.96338H7.19062C7.75781 6.129 9.81641 3.90322 12.5 3.07119ZM5.46797 10.5259H24.2187V12.0884H5.46875L5.46797 10.5259ZM8.59375 13.6509V14.4321C8.02187 14.4321 7.49297 14.5978 7.03125 14.8665V13.6509H8.59375ZM7.03125 17.5571C7.03125 16.6954 7.73203 15.9946 8.59375 15.9946V19.1196C7.73203 19.1196 7.03125 18.4188 7.03125 17.5571ZM10.1562 19.1196V13.6509H19.5312V19.1196C19.5312 20.4118 18.4797 21.4634 17.1875 21.4634H12.5C11.2078 21.4634 10.1562 20.4118 10.1562 19.1196ZM2.34375 37.8696V37.3556C2.34375 31.9181 5.83125 27.2243 10.9375 25.6142V41.2368L10.0898 41.0485C8.28906 40.6478 7.03125 39.0798 7.03125 37.2345V33.9634H5.46875V37.2345C5.46875 39.8173 7.22969 42.0126 9.75078 42.5728L12.5 43.1837V44.9009H9.375C5.49844 44.9009 2.34375 41.7462 2.34375 37.8696ZM7.03125 46.1306C7.77734 46.3423 8.56172 46.4634 9.375 46.4634H10.9375V48.0259H7.03125V46.1306ZM24.2187 48.0259V42.4899C25.143 43.0212 26.2109 43.3243 27.3437 43.336V48.0259H24.2187ZM35.1562 44.9009C33.8641 44.9009 32.8125 43.8493 32.8125 42.5571C32.8125 42.1267 33.1633 41.7759 33.5937 41.7759H36.7187C37.1492 41.7759 37.5 42.1267 37.5 42.5571C37.5 43.8493 36.4484 44.9009 35.1562 44.9009ZM42.9039 41.7759H38.918C38.5945 40.8688 37.7352 40.2134 36.718 40.2134H33.593C32.5758 40.2134 31.7164 40.8688 31.393 41.7759H27.407C25.357 41.7759 23.582 40.5063 22.8875 38.6509H47.4219C46.7289 40.5063 44.9547 41.7759 42.9039 41.7759Z" fill="#30373E"></path>
                                <path d="M38.2812 18.3384H39.8438V19.9009H38.2812V18.3384Z" fill="#30373E"></path>
                                <path d="M35.1562 18.3384H36.7188V19.9009H35.1562V18.3384Z" fill="#30373E"></path>
                                <path d="M32.0312 18.3384H33.5938V19.9009H32.0312V18.3384Z" fill="#30373E"></path>
                                <path d="M38.2812 21.4634H39.8438V23.0259H38.2812V21.4634Z" fill="#30373E"></path>
                                <path d="M32.0312 21.4634H33.5938V23.0259H32.0312V21.4634Z" fill="#30373E"></path>
                                <path d="M35.1562 21.4634H36.7188V23.0259H35.1562V21.4634Z" fill="#30373E"></path>
                                <path d="M38.2812 24.5884H39.8438V26.1509H38.2812V24.5884Z" fill="#30373E"></path>
                                <path d="M28.9062 27.7134H30.4688V35.5259H28.9062V27.7134Z" fill="#30373E"></path>
                                <path d="M32.0312 27.7134H33.5938V35.5259H32.0312V27.7134Z" fill="#30373E"></path>
                                <path d="M38.2812 30.8384H41.4062V32.4009H38.2812V30.8384Z" fill="#30373E"></path>
                                <path d="M38.2812 33.9634H41.4062V35.5259H38.2812V33.9634Z" fill="#30373E"></path>
                            </svg>