<svg width="151" height="25" viewBox="0 0 151 25" fill="none" xmlns="http://www.w3.org/2000/svg">
<path fill-rule="evenodd" clip-rule="evenodd" d="M0 14.9606V10.2804L11.6582 0H16.9854L0 14.9606Z" fill="#B19777"/>
<path fill-rule="evenodd" clip-rule="evenodd" d="M25.0755 7.38934L28.3652 10.3107V10.3208V14.9808L22.392 9.7143L25.0755 7.38934Z" fill="#B19777"/>
<path fill-rule="evenodd" clip-rule="evenodd" d="M14.1528 12.3931L0 24.7356V20.2474L23.0679 0H28.3653V5.64056L25.165 2.80006L22.4617 5.15535L19.8279 7.44999L16.8065 10.0883L14.1528 12.3931Z" fill="#B19777"/>
<path fill-rule="evenodd" clip-rule="evenodd" d="M19.4005 12.3122L28.3653 20.0149V24.4727L16.7568 14.6068L19.4005 12.3122Z" fill="#B19777"/>
<path fill-rule="evenodd" clip-rule="evenodd" d="M0 0V5.64056L6.37076 0H0Z" fill="#B19777"/>
<path d="M36.9226 22.056V2.37466H40.4509V22.056H36.9226Z" fill="#272727"/>
<path d="M44.168 22.056V2.37466H46.921L57.5655 16.9613L56.1343 17.2544V2.37466H59.6626V22.056H56.8797L46.4042 7.36828L47.7062 7.07513V22.056H44.168Z" fill="#272727"/>
<path d="M63.4095 22.056V2.37466H66.1625L76.8069 16.9613L75.3758 17.2544V2.37466H78.914V22.056H76.1311L65.6457 7.36828L66.9477 7.07513V22.056H63.4095Z" fill="#272727"/>
<path d="M92.1922 22.3794C90.7709 22.3794 89.4491 22.1267 88.2167 21.6112C86.9843 21.0957 85.9109 20.3881 84.9965 19.4682C84.0821 18.5483 83.3665 17.4768 82.8497 16.2335C82.3428 14.9901 82.0844 13.6457 82.0844 12.2001C82.0844 10.7344 82.3329 9.38998 82.8398 8.15674C83.3467 6.9235 84.0523 5.85199 84.9667 4.93212C85.8811 4.01224 86.9544 3.30464 88.1869 2.80933C89.4193 2.3039 90.7511 2.06129 92.1822 2.06129C93.6234 2.06129 94.9552 2.31401 96.1776 2.82954C97.4101 3.34508 98.4834 4.05267 99.3978 4.95233C100.312 5.8621 101.028 6.93361 101.545 8.16685C102.051 9.40009 102.31 10.7445 102.31 12.2103C102.31 13.6558 102.051 15.0002 101.535 16.2436C101.018 17.4869 100.292 18.5685 99.3779 19.4783C98.4636 20.3982 97.3902 21.1058 96.1677 21.6213C94.9552 22.1166 93.6234 22.3794 92.1922 22.3794ZM92.1922 19.0942C93.1463 19.0942 94.0209 18.9223 94.816 18.5786C95.6111 18.2349 96.3068 17.7598 96.9032 17.1432C97.4995 16.5266 97.9567 15.7988 98.2847 14.9497C98.6027 14.1006 98.7617 13.1908 98.7617 12.2001C98.7617 11.2095 98.6027 10.2997 98.2847 9.47085C97.9666 8.63184 97.5094 7.90402 96.9032 7.2773C96.3068 6.65057 95.6111 6.17547 94.816 5.84188C94.0209 5.5083 93.1463 5.33646 92.1922 5.33646C91.2579 5.33646 90.3933 5.5083 89.5982 5.84188C88.8031 6.17547 88.1073 6.66068 87.511 7.2773C86.9147 7.90402 86.4476 8.63184 86.1196 9.47085C85.7916 10.3099 85.6226 11.2196 85.6226 12.2001C85.6226 13.1908 85.7916 14.1006 86.1196 14.9497C86.4476 15.7988 86.9147 16.5266 87.511 17.1432C88.1073 17.7598 88.8031 18.2349 89.5982 18.5786C90.3933 18.9223 91.2579 19.0942 92.1922 19.0942Z" fill="#272727"/>
<path d="M110.112 22.056L103.363 2.37466H107.21L112.507 18.6696H111.752L117.049 2.37466H120.895L114.167 22.056H110.112Z" fill="#272727"/>
<path d="M120.289 22.056L126.968 2.37466H131.54L138.219 22.056H134.372L132.991 17.8306H125.507L124.106 22.056H120.289ZM126.531 14.6565H131.987L128.767 4.85125H129.751L126.531 14.6565Z" fill="#272727"/>
<path d="M142.502 22.056V5.54874H137.493V2.37466H151V5.54874H146.06V22.056H142.502Z" fill="#272727"/>
</svg>
