<svg width="151" height="25" viewBox="0 0 151 25" fill="none" xmlns="http://www.w3.org/2000/svg">
<path fill-rule="evenodd" clip-rule="evenodd" d="M0 14.9606V10.2804L11.6582 0H16.9854L0 14.9606Z" fill="#B19777"/>
<path fill-rule="evenodd" clip-rule="evenodd" d="M25.0751 7.38934L28.3648 10.3107V10.3208V14.9808L22.3916 9.7143L25.0751 7.38934Z" fill="#B19777"/>
<path fill-rule="evenodd" clip-rule="evenodd" d="M14.1528 12.3931L0 24.7356V20.2474L23.0679 0H28.3653V5.64056L25.165 2.80006L22.4617 5.15535L19.8279 7.44999L16.8065 10.0883L14.1528 12.3931Z" fill="#B19777"/>
<path fill-rule="evenodd" clip-rule="evenodd" d="M19.4006 12.3122L28.3653 20.0149V24.4727L16.7568 14.6068L19.4006 12.3122Z" fill="#B19777"/>
<path fill-rule="evenodd" clip-rule="evenodd" d="M0 0V5.64056L6.37076 0H0Z" fill="#B19777"/>
<path d="M36.9229 22.056V2.37468H40.4511V22.056H36.9229Z" fill="#30373E"/>
<path d="M44.168 22.056V2.37466H46.921L57.5655 16.9613L56.1343 17.2544V2.37466H59.6625V22.056H56.8797L46.4042 7.36828L47.7062 7.07513V22.056H44.168Z" fill="#30373E"/>
<path d="M63.4102 22.056V2.37466H66.1632L76.8076 16.9613L75.3765 17.2544V2.37466H78.9147V22.056H76.1318L65.6464 7.36828L66.9484 7.07513V22.056H63.4102Z" fill="#30373E"/>
<path d="M92.1927 22.3795C90.7715 22.3795 89.4496 22.1267 88.2172 21.6112C86.9848 21.0957 85.9114 20.3881 84.997 19.4682C84.0827 18.5483 83.3671 17.4768 82.8502 16.2335C82.3434 14.9901 82.085 13.6457 82.085 12.2002C82.085 10.7344 82.3334 9.38999 82.8403 8.15675C83.3472 6.92351 84.0528 5.85201 84.9672 4.93213C85.8816 4.01226 86.955 3.30466 88.1874 2.80934C89.4198 2.30391 90.7516 2.06131 92.1828 2.06131C93.6239 2.06131 94.9557 2.31402 96.1782 2.82956C97.4106 3.34509 98.484 4.05269 99.3983 4.95235C100.313 5.86212 101.028 6.93362 101.545 8.16686C102.052 9.4001 102.31 10.7445 102.31 12.2103C102.31 13.6558 102.052 15.0002 101.535 16.2436C101.018 17.4869 100.293 18.5685 99.3785 19.4783C98.4641 20.3982 97.3907 21.1058 96.1682 21.6213C94.9557 22.1166 93.6239 22.3795 92.1927 22.3795ZM92.1927 19.0942C93.1468 19.0942 94.0214 18.9223 94.8165 18.5786C95.6116 18.235 96.3074 17.7599 96.9037 17.1432C97.5 16.5266 97.9572 15.7988 98.2852 14.9497C98.6032 14.1006 98.7622 13.1908 98.7622 12.2002C98.7622 11.2095 98.6032 10.2998 98.2852 9.47086C97.9671 8.63185 97.51 7.90404 96.9037 7.27731C96.3074 6.65058 95.6116 6.17548 94.8165 5.8419C94.0214 5.50832 93.1468 5.33647 92.1927 5.33647C91.2585 5.33647 90.3938 5.50832 89.5987 5.8419C88.8036 6.17548 88.1079 6.66069 87.5115 7.27731C86.9152 7.90404 86.4481 8.63185 86.1201 9.47086C85.7921 10.3099 85.6232 11.2196 85.6232 12.2002C85.6232 13.1908 85.7921 14.1006 86.1201 14.9497C86.4481 15.7988 86.9152 16.5266 87.5115 17.1432C88.1079 17.7599 88.8036 18.235 89.5987 18.5786C90.3938 18.9223 91.2585 19.0942 92.1927 19.0942Z" fill="#30373E"/>
<path d="M110.112 22.056L103.363 2.37466H107.21L112.507 18.6696H111.752L117.049 2.37466H120.895L114.167 22.056H110.112Z" fill="#30373E"/>
<path d="M120.289 22.056L126.968 2.37466H131.54L138.219 22.056H134.372L132.991 17.8306H125.507L124.106 22.056H120.289ZM126.531 14.6565H131.987L128.767 4.85125H129.751L126.531 14.6565Z" fill="#30373E"/>
<path d="M142.502 22.056V5.54874H137.493V2.37466H151V5.54874H146.06V22.056H142.502Z" fill="#30373E"/>
</svg>
